<svg width="222" height="42" viewBox="0 0 222 42" fill="none" xmlns="http://www.w3.org/2000/svg">
    <path d="M0.12 40L0.3 39.4L1.38 38.8C2.18 38.4 2.76 37.96 3.12 37.48C3.52 36.96 3.8 36.28 3.96 35.44L7.14 19C7.58 16.76 8 14.44 8.4 12.04C8.84 9.6 9.26 7.22 9.66 4.9C9.94 3.3 9.32 2.1 7.8 1.3L7.2 0.999998L7.32 0.399998H21.78C24.94 0.399998 27.46 0.819998 29.34 1.66C31.22 2.5 32.56 3.6 33.36 4.96C34.2 6.32 34.62 7.78 34.62 9.34C34.62 10.82 34.16 12.26 33.24 13.66C32.32 15.02 30.92 16.18 29.04 17.14C27.16 18.1 24.8 18.72 21.96 19C24.8 19.32 27.1 19.98 28.86 20.98C30.62 21.98 31.9 23.18 32.7 24.58C33.54 25.98 33.96 27.46 33.96 29.02C33.96 30.9 33.38 32.68 32.22 34.36C31.06 36.04 29.2 37.4 26.64 38.44C24.12 39.48 20.8 40 16.68 40H0.12ZM15.36 18.52H17.46C20.46 18.52 22.72 17.72 24.24 16.12C25.76 14.48 26.52 12.16 26.52 9.16C26.52 6.72 25.98 4.86 24.9 3.58C23.86 2.26 22.3 1.6 20.22 1.6H18.54L15.36 18.52ZM11.7 38.8H15.24C18.76 38.8 21.38 37.8 23.1 35.8C24.86 33.76 25.74 31.14 25.74 27.94C25.74 22.46 23.1 19.72 17.82 19.72H15.06L14.76 21.34C14.28 24.26 13.76 27.18 13.2 30.1C12.68 33.02 12.18 35.92 11.7 38.8ZM43.8464 40.9C42.4864 40.9 41.3064 40.5 40.3064 39.7C39.3464 38.86 38.8664 37.62 38.8664 35.98C38.8664 35.06 38.9664 34.06 39.1664 32.98C39.3664 31.9 39.5864 30.84 39.8264 29.8L42.4664 17.98C42.8264 16.42 42.2864 15.28 40.8464 14.56L39.7064 14.08L39.7664 13.42L51.1064 10.18L51.6464 10.66L47.4464 29.02C47.2064 30.02 47.0064 30.92 46.8464 31.72C46.6864 32.52 46.6064 33.26 46.6064 33.94C46.6064 34.82 46.8064 35.46 47.2064 35.86C47.6064 36.22 48.1264 36.4 48.7664 36.4C49.6864 36.4 50.7064 36.08 51.8264 35.44C52.9464 34.76 54.2464 33.72 55.7264 32.32C55.7664 32.08 55.8264 31.82 55.9064 31.54L57.9464 21.88C58.2664 20.32 58.5664 18.76 58.8464 17.2C59.1664 15.6 59.4664 14 59.7464 12.4L67.3064 10.18L67.9664 10.72L63.2264 32.5C62.9064 33.9 62.7464 35 62.7464 35.8C62.7464 36.64 63.1064 37.06 63.8264 37.06C64.3864 37.06 64.9864 36.84 65.6264 36.4C66.2664 35.92 67.0464 35.22 67.9664 34.3L68.6864 35.02C67.6864 36.5 66.4064 37.86 64.8464 39.1C63.3264 40.3 61.5864 40.9 59.6264 40.9C58.3864 40.9 57.3464 40.48 56.5064 39.64C55.7064 38.76 55.3064 37.52 55.3064 35.92C55.3064 35.32 55.3464 34.74 55.4264 34.18C53.3464 36.26 51.3264 37.9 49.3664 39.1C47.4464 40.3 45.6064 40.9 43.8464 40.9ZM70.7077 41.08L69.3877 39.76L89.1277 19.24C87.6477 18.96 86.0477 18.66 84.3277 18.34C82.6477 17.98 80.8277 17.64 78.8677 17.32C76.9477 16.96 75.4677 17.66 74.4277 19.42L74.0677 20.08L73.2277 19.9L75.0877 10.18C78.3277 10.78 81.6677 11.4 85.1077 12.04C88.5877 12.68 91.7277 13.2 94.5277 13.6L97.6477 10.36L99.0877 11.8L79.8877 31.6C81.2877 33 82.9277 34.12 84.8077 34.96C86.7277 35.76 88.6477 36.16 90.5677 36.16C91.2477 36.16 91.8677 36.12 92.4277 36.04C92.9877 35.96 93.4677 35.84 93.8677 35.68C94.3477 35.48 94.5877 35.16 94.5877 34.72C94.6277 34.28 94.4277 33.92 93.9877 33.64C92.7477 32.8 91.9477 32.02 91.5877 31.3C91.2277 30.58 91.0477 29.98 91.0477 29.5C91.0477 28.54 91.3677 27.74 92.0077 27.1C92.6877 26.42 93.5277 26.08 94.5277 26.08C95.5277 26.08 96.3477 26.44 96.9877 27.16C97.6677 27.84 98.0077 28.88 98.0077 30.28C98.0077 32.32 97.5277 34.2 96.5677 35.92C95.6077 37.64 94.2877 39.02 92.6077 40.06C90.9277 41.1 88.9877 41.62 86.7877 41.62C85.1077 41.62 83.4277 41.2 81.7477 40.36C80.1077 39.52 78.7477 38.52 77.6677 37.36L76.0477 35.62L70.7077 41.08ZM99.7116 41.08L98.3916 39.76L118.132 19.24C116.652 18.96 115.052 18.66 113.332 18.34C111.652 17.98 109.832 17.64 107.872 17.32C105.952 16.96 104.472 17.66 103.432 19.42L103.072 20.08L102.232 19.9L104.092 10.18C107.332 10.78 110.672 11.4 114.112 12.04C117.592 12.68 120.732 13.2 123.532 13.6L126.652 10.36L128.092 11.8L108.892 31.6C110.292 33 111.932 34.12 113.812 34.96C115.732 35.76 117.652 36.16 119.572 36.16C120.252 36.16 120.872 36.12 121.432 36.04C121.992 35.96 122.472 35.84 122.872 35.68C123.352 35.48 123.592 35.16 123.592 34.72C123.632 34.28 123.432 33.92 122.992 33.64C121.752 32.8 120.952 32.02 120.592 31.3C120.232 30.58 120.052 29.98 120.052 29.5C120.052 28.54 120.372 27.74 121.012 27.1C121.692 26.42 122.532 26.08 123.532 26.08C124.532 26.08 125.352 26.44 125.992 27.16C126.672 27.84 127.012 28.88 127.012 30.28C127.012 32.32 126.532 34.2 125.572 35.92C124.612 37.64 123.292 39.02 121.612 40.06C119.932 41.1 117.992 41.62 115.792 41.62C114.112 41.62 112.432 41.2 110.752 40.36C109.112 39.52 107.752 38.52 106.672 37.36L105.052 35.62L99.7116 41.08ZM136.155 40.9C135.035 40.9 133.975 40.64 132.975 40.12C131.975 39.6 131.155 38.74 130.515 37.54C129.915 36.34 129.615 34.76 129.615 32.8C129.615 30.68 130.035 28.56 130.875 26.44C131.715 24.28 132.835 22.24 134.235 20.32C135.635 18.36 137.195 16.64 138.915 15.16C140.635 13.64 142.415 12.44 144.255 11.56C146.095 10.68 147.835 10.24 149.475 10.24C150.275 10.24 151.015 10.4 151.695 10.72C152.415 11 153.095 11.4 153.735 11.92L158.595 10.06L159.075 10.36L153.855 33.34C153.575 34.46 153.435 35.38 153.435 36.1C153.435 36.94 153.815 37.36 154.575 37.36C155.135 37.36 155.775 37.1 156.495 36.58C157.255 36.06 158.115 35.36 159.075 34.48L159.555 34.96C158.955 35.92 158.195 36.86 157.275 37.78C156.395 38.66 155.395 39.4 154.275 40C153.195 40.6 152.035 40.9 150.795 40.9C149.435 40.9 148.335 40.5 147.495 39.7C146.655 38.86 146.235 37.58 146.235 35.86C146.235 35.3 146.255 34.76 146.295 34.24C144.695 36.04 142.995 37.6 141.195 38.92C139.435 40.24 137.755 40.9 136.155 40.9ZM136.695 30.1C136.695 32.22 137.035 33.76 137.715 34.72C138.435 35.64 139.375 36.1 140.535 36.1C141.495 36.1 142.455 35.8 143.415 35.2C144.375 34.6 145.415 33.74 146.535 32.62C146.615 32.14 146.715 31.64 146.835 31.12L150.615 13.84C150.095 13.2 149.475 12.76 148.755 12.52C148.035 12.28 147.395 12.16 146.835 12.16C145.115 12.16 143.315 13.18 141.435 15.22C139.955 16.86 138.795 19.02 137.955 21.7C137.115 24.38 136.695 27.18 136.695 30.1ZM169.671 40.9C168.551 40.9 167.491 40.64 166.491 40.12C165.491 39.6 164.671 38.74 164.031 37.54C163.431 36.34 163.131 34.76 163.131 32.8C163.131 30.68 163.551 28.56 164.391 26.44C165.231 24.28 166.351 22.24 167.751 20.32C169.151 18.36 170.711 16.64 172.431 15.16C174.151 13.64 175.931 12.44 177.771 11.56C179.611 10.68 181.351 10.24 182.991 10.24C183.791 10.24 184.531 10.4 185.211 10.72C185.931 11 186.611 11.4 187.251 11.92L192.111 10.06L192.591 10.36L187.371 33.34C187.091 34.46 186.951 35.38 186.951 36.1C186.951 36.94 187.331 37.36 188.091 37.36C188.651 37.36 189.291 37.1 190.011 36.58C190.771 36.06 191.631 35.36 192.591 34.48L193.071 34.96C192.471 35.92 191.711 36.86 190.791 37.78C189.911 38.66 188.911 39.4 187.791 40C186.711 40.6 185.551 40.9 184.311 40.9C182.951 40.9 181.851 40.5 181.011 39.7C180.171 38.86 179.751 37.58 179.751 35.86C179.751 35.3 179.771 34.76 179.811 34.24C178.211 36.04 176.511 37.6 174.711 38.92C172.951 40.24 171.271 40.9 169.671 40.9ZM170.211 30.1C170.211 32.22 170.551 33.76 171.231 34.72C171.951 35.64 172.891 36.1 174.051 36.1C175.011 36.1 175.971 35.8 176.931 35.2C177.891 34.6 178.931 33.74 180.051 32.62C180.131 32.14 180.231 31.64 180.351 31.12L184.131 13.84C183.611 13.2 182.991 12.76 182.271 12.52C181.551 12.28 180.911 12.16 180.351 12.16C178.631 12.16 176.831 13.18 174.951 15.22C173.471 16.86 172.311 19.02 171.471 21.7C170.631 24.38 170.211 27.18 170.211 30.1ZM196.647 40.42L196.047 40L200.607 18.04C200.807 17 200.747 16.24 200.427 15.76C200.107 15.24 199.567 14.82 198.807 14.5L197.907 14.08L198.027 13.48L208.467 10.18L209.067 10.72L207.447 20.62C208.287 18.7 209.267 16.96 210.387 15.4C211.507 13.84 212.687 12.6 213.927 11.68C215.167 10.72 216.407 10.24 217.647 10.24C218.887 10.24 219.887 10.58 220.647 11.26C221.407 11.9 221.787 12.76 221.787 13.84C221.787 14.96 221.447 15.88 220.767 16.6C220.127 17.32 219.247 17.68 218.127 17.68C217.247 17.68 216.407 17.46 215.607 17.02C214.807 16.54 214.027 15.86 213.267 14.98C211.867 16.02 210.667 17.38 209.667 19.06C208.667 20.7 207.747 22.5 206.907 24.46L206.307 27.22C205.867 29.34 205.447 31.46 205.047 33.58C204.647 35.7 204.247 37.84 203.847 40L196.647 40.42Z" fill="#99319B"/>
</svg>
